<?xml version="1.0" encoding="utf-8"?>
<!-- Generator: Adobe Illustrator 19.2.0, SVG Export Plug-In . SVG Version: 6.00 Build 0)  -->
<svg version="1.1" id="Layer_1" xmlns="http://www.w3.org/2000/svg" xmlns:xlink="http://www.w3.org/1999/xlink" x="0px" y="0px"
	 viewBox="0 0 256.6 233.5" style="enable-background:new 0 0 256.6 233.5;" xml:space="preserve">
<style type="text/css">
	.st0{fill:#FFFFFF;}
	.st1{fill:#0C0C0C;

</style>
<g>
	<g>
		<path class="st0" d="M60.3,207l0-3.5c-0.2-19.6,6.5-33.7,20.4-43.3c4.4-3,9.1-5.4,13.6-7.7c3.2-1.6,6.6-3.3,9.7-5.2
			c2.2-1.3,4.3-3.3,6.7-6.1c-0.1-0.4-0.4-0.8-0.5-1c-11.6-8.5-19.1-22.2-20.4-37.8c-1.3-15.6,3.8-30.5,13.9-40.8
			c6.8-6.9,15.6-10.7,24.6-10.7c9.2,0,18,3.9,24.8,10.9c10,10.3,15,25.2,13.7,40.6c-1.3,15.4-8.8,29.1-20.4,37.6
			c-0.6,0.4-0.7,1-0.7,1.4c0,0.9,0.5,1.8,1.3,2.4c2.3,1.7,4.9,3.1,7.7,4.6l1.3,0.7c2,1.1,4.1,2.1,6.1,3.1c3.6,1.8,7.4,3.6,10.9,5.9
			c16,10,24,25.8,23.1,45.5L196,207H60.3z"/>
		<path class="st1" d="M128.3,54.4c8,0,15.9,3.3,22.3,9.9c19.5,20.1,16.4,56.5-6.2,72.9c-3,2.2-2.9,6.8,0.6,9.5
			c2.9,2.2,6.2,3.8,9.4,5.6c5.6,3,11.4,5.5,16.8,8.8c14.9,9.4,22.3,24.1,21.5,42.3c-43,0-85.8,0-128.9,0c-0.2-16.7,5-30.8,18.9-40.3
			c7.2-4.9,15.6-8.2,23.1-12.7c3.2-1.9,6-4.9,8.4-7.9c0.6-0.8-0.6-4.1-1.8-5c-22.8-16.4-26-53.3-6.1-73.3
			C112.5,57.7,120.4,54.4,128.3,54.4 M128.3,47.4L128.3,47.4c-10,0-19.7,4.2-27.1,11.8c-10.9,11-16.3,26.9-14.9,43.5
			c1.3,15.6,8.4,29.5,19.6,38.6c-1.3,1.3-2.5,2.3-3.7,3c-3,1.8-6.1,3.4-9.5,5.1c-4.7,2.4-9.5,4.8-14,7.9
			c-14.8,10.1-22.2,25.7-21.9,46.2l0.1,6.9h6.9h128.9h6.7l0.3-6.7c0.9-20.7-7.9-38-24.8-48.6c-3.7-2.3-7.5-4.2-11.2-6
			c-2.1-1-4-2-6-3c-0.4-0.2-0.9-0.5-1.3-0.7c-2.3-1.2-4.5-2.4-6.4-3.7c11.5-9.1,18.9-23.2,20.2-38.9c1.4-16.5-3.9-32.3-14.7-43.4
			C148.2,51.7,138.5,47.4,128.3,47.4L128.3,47.4z"/>
	</g>
	<g>
		<path class="st0" d="M220.5,169.4c-8,0-17.4,0-26.7-0.1c-1.8,0-4.3-0.8-5.7-2.5c-7.8-9.4-18.1-14.7-30.8-20.7
			c-0.5-0.3-1.1-0.5-1.7-0.9c-0.3-0.2-0.7-0.4-1.1-0.6l-4-2.2l3.2-3.3c13.3-13.9,18.7-30.5,15.9-49.2c-2.9-20.1-13-33.5-30.8-41
			l-2.9-1.2l0.9-3c4.4-14.7,12.4-24.2,24.4-29.1c4.2-1.7,8.4-2.6,12.5-2.6c7.9,0,15.4,3.1,22.2,9.2c11,9.8,16.7,24.7,15.8,40.9
			c-0.9,16-8.5,30.7-20.4,39.2c-0.6,0.4-0.8,1-0.8,1.4c0,0.8,0.5,1.7,1.3,2.4c2.1,1.6,4.6,2.9,7.2,4.3c0.6,0.3,1.2,0.6,1.8,1
			c2.1,1.1,4.3,2.2,6.4,3.3c4.1,2.1,8.3,4.2,12.3,6.8c14.5,9.5,21.6,24,21.8,44.3l0,3.5L220.5,169.4z"/>
		<path class="st1" d="M173.7,16.5c7.2,0,13.9,3,19.9,8.4c21.4,19.2,19.1,57.9-4.3,74.6c-3.1,2.2-3,6.8,0.5,9.4
			c2.9,2.2,6.2,3.8,9.4,5.6c6.1,3.3,12.6,6.2,18.4,10c14.5,9.5,20,23.8,20.2,41.4c-5.9,0-11.7,0-17.4,0c-8.9,0-17.8,0-26.6-0.1
			c-1,0-2.4-0.5-3-1.3c-8.5-10.4-20.2-16.1-32-21.7c-0.7-0.3-1.4-0.8-2.6-1.4c14.1-14.8,19.8-32.2,16.9-52.1
			c-2.9-20.2-13-35.3-32.9-43.7c3.7-12.2,10.2-22,22.3-26.9C166.3,17.3,170.1,16.5,173.7,16.5 M173.7,9.5L173.7,9.5
			c-4.6,0-9.2,0.9-13.8,2.8c-13.1,5.3-21.7,15.5-26.4,31.3l-1.8,6l5.8,2.4c16.6,6.9,25.9,19.4,28.7,38.2c2.6,17.8-2.3,33-15,46.3
			l-6.3,6.6l8,4.4c0.4,0.2,0.7,0.4,1,0.6c0.6,0.4,1.3,0.7,2,1c12.3,5.8,22.3,11,29.6,19.8c2.3,2.8,6,3.8,8.4,3.8
			c9.3,0.1,18.7,0.1,26.6,0.1l8.6,0l8.8,0h7.1l-0.1-7.1c-0.2-21.6-7.8-37-23.3-47.2c-4.1-2.7-8.4-4.9-12.6-7
			c-2.2-1.1-4.2-2.1-6.3-3.3c-0.6-0.3-1.2-0.6-1.8-1c-2.1-1.1-4.1-2.2-5.8-3.4c12-9.3,19.4-24,20.3-40.7c1-17.2-5.2-33.2-17-43.7
			C190.7,12.9,182.5,9.5,173.7,9.5L173.7,9.5z"/>
	</g>
	<g>
		<path class="st0" d="M15.3,169.4l0-3.5c0.2-18.8,5.8-31.9,17.8-41.3c4.2-3.3,8.9-5.9,13.5-8.4c1.3-0.7,2.6-1.4,3.9-2.2
			c1.9-1.1,3.9-2.1,5.8-3c2.4-1.2,4.7-2.3,6.9-3.7c2.4-1.5,3.1-2.6,3.1-3c0-0.4-0.5-1.5-2.8-3.1C51.9,92.6,45,77.5,44.9,60.8
			c-0.1-16.8,6.8-32,18.4-40.7c6.1-4.5,13.1-6.9,20.2-6.9c7.5,0,14.8,2.6,21,7.6c7.5,6,12.5,13.9,15.3,23.9l0.8,3l-2.9,1.2
			c-17.6,7.3-27.6,20.5-30.7,40.5c-2.9,19.2,2.3,35.5,15.9,49.7l3.3,3.4l-4.2,2.1c-0.9,0.4-1.7,0.9-2.6,1.3c-1.9,1-3.6,1.9-5.5,2.8
			c-11.5,5.5-19.3,10.9-25.2,17.7c-1.5,1.7-4.1,2.9-6.4,3c-8.8,0.1-17.4,0.1-24.7,0.1L15.3,169.4z"/>
		<path class="st1" d="M83.5,16.7c6.6,0,13.1,2.3,18.8,6.9c7.1,5.7,11.6,13.1,14.1,22.1c-19.4,8-29.7,23-32.8,43.2
			c-3,20,2.4,37.5,16.8,52.6c-2.8,1.4-5.3,2.8-8,4c-9.9,4.7-19,10.2-26.3,18.6c-0.8,1-2.5,1.7-3.8,1.8c-8.2,0.1-16.4,0.1-24.8,0.1
			c-6.2,0-12.4,0-18.8,0c0.2-15.7,4.3-29,16.5-38.6c5.2-4.1,11.2-7,17-10.3c4.2-2.4,8.7-4.2,12.8-6.7c6.2-3.9,6.2-7.8,0.6-12
			c-22.9-16.8-23-58.4-0.3-75.4C70.9,18.8,77.2,16.7,83.5,16.7 M83.5,9.7v7V9.7L83.5,9.7c-7.9,0-15.6,2.6-22.3,7.6
			c-12.5,9.3-19.9,25.6-19.8,43.5c0.1,17.9,7.6,34,20.1,43.2c0.1,0.1,0.2,0.1,0.2,0.2c-0.1,0.1-0.2,0.1-0.4,0.2
			c-2,1.2-4.2,2.3-6.6,3.5c-2,1-4,1.9-6,3.1c-1.3,0.7-2.6,1.4-3.9,2.2c-4.7,2.6-9.5,5.3-14,8.7c-12.7,9.9-19,24.3-19.2,44l-0.1,7.1
			h7.1c3.2,0,6.4,0,9.5,0c3.1,0,6.2,0,9.3,0c7.4,0,16.1,0,24.9-0.1c3.3,0,6.8-1.7,9-4.2c5.6-6.4,13-11.6,24-16.9
			c1.9-0.9,3.7-1.8,5.6-2.8c0.8-0.4,1.7-0.9,2.6-1.3l8.4-4.3l-6.5-6.8c-12.8-13.4-17.7-28.7-15-46.7c2.8-18.6,12.2-31,28.5-37.7
			l5.7-2.4l-1.7-6c-3-10.8-8.4-19.2-16.5-25.7C99.8,12.6,91.8,9.7,83.5,9.7L83.5,9.7z"/>
	</g>
</g>
</svg>
